<svg xmlns="http://www.w3.org/2000/svg" xmlns:xlink="http://www.w3.org/1999/xlink" width="600" zoomAndPan="magnify" viewBox="0 0 450 149.999998" height="200" preserveAspectRatio="xMidYMid meet" version="1.0"><defs><g/></defs><rect x="-45" width="540" fill="#ffffff" y="-15" height="179.999997" fill-opacity="1"/><rect x="-45" width="540" fill="#ffffff" y="-15" height="179.999997" fill-opacity="1"/><g fill="#ffffff" fill-opacity="1"><g transform="translate(9.510624, 98.984901)"><g><path d="M 14.609375 -66.09375 C 15.234375 -36.300781 15.546875 -14.394531 15.546875 -0.375 C 12.210938 0.15625 8.109375 0.296875 3.234375 0.046875 C 3.484375 -25.773438 3.296875 -46.085938 2.671875 -60.890625 C 2.421875 -63.390625 2.328125 -65.1875 2.390625 -66.28125 C 9.441406 -66.5625 13.515625 -66.5 14.609375 -66.09375 Z M 14.609375 -66.09375 "/></g></g><g transform="translate(26.749773, 98.984901)"><g><path d="M 38.828125 -65.71875 C 39.078125 -57.070312 39.234375 -47.375 39.296875 -36.625 C 39.453125 -33.289062 39.546875 -25.375 39.578125 -12.875 C 39.703125 -10.914062 39.890625 -4.984375 40.140625 4.921875 C 38.828125 5.234375 35.285156 5.1875 29.515625 4.78125 L 29.421875 4.734375 C 28.734375 3.078125 27.191406 -0.332031 24.796875 -5.5 C 22.410156 -10.664062 17.863281 -21.523438 11.15625 -38.078125 L 11.15625 -37.984375 C 11.3125 -26.867188 11.1875 -14.441406 10.78125 -0.703125 C 8.09375 -0.328125 5.3125 -0.171875 2.4375 -0.234375 C 2.84375 -21.003906 2.671875 -41.316406 1.921875 -61.171875 L 2.0625 -61.828125 C 4.875 -61.984375 8.125 -62 11.8125 -61.875 L 11.90625 -61.828125 C 13.832031 -57.335938 16.625 -50.28125 20.28125 -40.65625 C 23.1875 -33.820312 25.21875 -29.453125 26.375 -27.546875 L 26.421875 -27.640625 C 26.390625 -29.671875 26.09375 -36.726562 25.53125 -48.8125 C 25.5 -52.0625 25.328125 -57.601562 25.015625 -65.4375 L 25.109375 -65.625 C 27.328125 -65.71875 31.898438 -65.75 38.828125 -65.71875 Z M 38.828125 -65.71875 "/></g></g><g transform="translate(69.472883, 98.984901)"><g><path d="M 29.703125 -65.625 C 33.453125 -64.25 35.710938 -62.59375 36.484375 -60.65625 C 37.890625 -57.945312 38.546875 -55.875 38.453125 -54.4375 C 38.765625 -51.6875 38.96875 -47.265625 39.0625 -41.171875 C 36.726562 -41.015625 32.53125 -40.890625 26.46875 -40.796875 C 26.25 -43.046875 26.078125 -46.5 25.953125 -51.15625 C 26.015625 -53.8125 25.0625 -55.5 23.09375 -56.21875 L 22.765625 -56.3125 C 20.515625 -57.125 17.984375 -57.09375 15.171875 -56.21875 C 14.359375 -55.6875 13.890625 -55.234375 13.765625 -54.859375 L 13.625 -54.484375 C 12.71875 -51.890625 12.640625 -47.828125 13.390625 -42.296875 C 13.859375 -40.453125 15.171875 -39.140625 17.328125 -38.359375 L 18.125 -38.078125 C 24.21875 -36.273438 28 -35.109375 29.46875 -34.578125 C 35.019531 -32.578125 37.953125 -29.71875 38.265625 -26 C 38.953125 -21.75 39.09375 -15.988281 38.6875 -8.71875 C 38.46875 -7.75 38.3125 -7.109375 38.21875 -6.796875 C 37 -3.421875 33.597656 -1.0625 28.015625 0.28125 C 21.703125 1.21875 16.363281 0.890625 12 -0.703125 C 7.25 -2.421875 4.65625 -6.03125 4.21875 -11.53125 C 3.65625 -16.519531 3.46875 -19.28125 3.65625 -19.8125 C 9.125 -19.90625 12.210938 -19.90625 12.921875 -19.8125 L 13.015625 -19.765625 C 12.796875 -13.460938 13.53125 -10 15.21875 -9.375 C 15.46875 -9.0625 15.96875 -8.765625 16.71875 -8.484375 C 18.53125 -7.828125 21.171875 -7.828125 24.640625 -8.484375 C 26.328125 -9.171875 27.46875 -10.328125 28.0625 -11.953125 C 29.125 -14.847656 28.921875 -17.859375 27.453125 -20.984375 C 26.390625 -22.671875 24.765625 -23.90625 22.578125 -24.6875 L 22.0625 -24.875 C 20.4375 -25.46875 16.800781 -26.25 11.15625 -27.21875 L 10.453125 -27.453125 C 6.109375 -29.015625 3.390625 -33.351562 2.296875 -40.46875 C 1.890625 -42.34375 1.984375 -46.203125 2.578125 -52.046875 C 2.765625 -53.609375 3.09375 -55.046875 3.5625 -56.359375 L 3.84375 -57.109375 C 6.25 -63.722656 12.648438 -66.96875 23.046875 -66.84375 C 25.265625 -66.8125 27.484375 -66.40625 29.703125 -65.625 Z M 29.703125 -65.625 "/></g></g><g transform="translate(112.102301, 98.984901)"><g><path d="M 14.609375 -66.09375 C 15.234375 -36.300781 15.546875 -14.394531 15.546875 -0.375 C 12.210938 0.15625 8.109375 0.296875 3.234375 0.046875 C 3.484375 -25.773438 3.296875 -46.085938 2.671875 -60.890625 C 2.421875 -63.390625 2.328125 -65.1875 2.390625 -66.28125 C 9.441406 -66.5625 13.515625 -66.5 14.609375 -66.09375 Z M 14.609375 -66.09375 "/></g></g><g transform="translate(129.341451, 98.984901)"><g><path d="M 28.53125 -66.421875 L 30.03125 -65.90625 C 34.988281 -64.34375 38.921875 -60.050781 41.828125 -53.03125 C 43.546875 -47.6875 44.484375 -41.316406 44.640625 -33.921875 C 44.890625 -26.328125 44.328125 -20.40625 42.953125 -16.15625 C 39.546875 -5.445312 31.894531 -0.21875 20 -0.46875 L 5.90625 -0.375 C 4.875 -17.300781 3.734375 -37.910156 2.484375 -62.203125 C 2.171875 -64.734375 2.078125 -66.203125 2.203125 -66.609375 C 16.722656 -67.359375 24.9375 -67.4375 26.84375 -66.84375 C 27.1875 -66.8125 27.75 -66.671875 28.53125 -66.421875 Z M 12.921875 -56.828125 L 14.796875 -13.203125 C 18.015625 -12.828125 20.890625 -12.921875 23.421875 -13.484375 C 26.984375 -14.234375 29.328125 -16.375 30.453125 -19.90625 C 31.484375 -23.15625 31.65625 -31.007812 30.96875 -43.46875 C 30.40625 -51.21875 28.03125 -55.75 23.84375 -57.0625 C 22.09375 -57.625 18.453125 -57.546875 12.921875 -56.828125 Z M 12.921875 -56.828125 "/></g></g><g transform="translate(175.437437, 98.984901)"><g><path d="M 34.90625 -65.71875 C 34.75 -59.320312 34.796875 -54.328125 35.046875 -50.734375 C 29.671875 -50.703125 23.03125 -50.421875 15.125 -49.890625 C 15.28125 -42.609375 15.4375 -38.265625 15.59375 -36.859375 C 21.46875 -37.296875 27.203125 -37.203125 32.796875 -36.578125 C 33.609375 -36.546875 34.515625 -36.546875 35.515625 -36.578125 C 35.640625 -35.992188 35.625 -33.203125 35.46875 -28.203125 C 35.09375 -27.765625 32.15625 -27.59375 26.65625 -27.6875 C 18.3125 -27.0625 13.4375 -26.59375 12.03125 -26.28125 C 11.601562 -20.6875 11.5 -15.582031 11.71875 -10.96875 L 25.0625 -10.96875 C 28.90625 -11.25 32.945312 -11.28125 37.1875 -11.0625 C 37.1875 -9.15625 36.8125 -5.796875 36.0625 -0.984375 C 31.632812 -0.890625 20.238281 -0.375 1.875 0.5625 C 2 -22.425781 1.953125 -38.867188 1.734375 -48.765625 L 1.03125 -64.96875 L 1.078125 -65.0625 C 4.453125 -65.3125 12.179688 -65.53125 24.265625 -65.71875 C 30.328125 -66.09375 33.875 -66.09375 34.90625 -65.71875 Z M 34.90625 -65.71875 "/></g></g><g transform="translate(213.757068, 98.984901)"><g/></g><g transform="translate(237.55459, 98.984901)"><g><path d="M 32.84375 -63.75 C 37.863281 -61.96875 40.65625 -57.847656 41.21875 -51.390625 C 42.4375 -44.890625 42.84375 -34.332031 42.4375 -19.71875 C 42 -15.03125 41.40625 -11.613281 40.65625 -9.46875 C 38.625 -3.75 33.628906 -0.78125 25.671875 -0.5625 C 19.921875 -0.34375 15.640625 -0.734375 12.828125 -1.734375 C 8.242188 -3.359375 5.296875 -7.210938 3.984375 -13.296875 C 2.890625 -17.328125 2.234375 -22.90625 2.015625 -30.03125 C 1.859375 -41.675781 2.4375 -49.3125 3.75 -52.9375 L 4.265625 -54.390625 C 5.515625 -57.921875 8.179688 -60.945312 12.265625 -63.46875 C 16.734375 -65.28125 21.390625 -65.84375 26.234375 -65.15625 C 28.234375 -65.0625 30.4375 -64.59375 32.84375 -63.75 Z M 17 -50.453125 L 16.671875 -49.515625 C 15.390625 -45.953125 15.265625 -36.441406 16.296875 -20.984375 C 16.890625 -15.765625 17.703125 -12.859375 18.734375 -12.265625 C 19.453125 -11.460938 20.328125 -10.875 21.359375 -10.5 C 24.140625 -9.53125 26.984375 -9.734375 29.890625 -11.109375 C 31.140625 -12.160156 31.9375 -13.203125 32.28125 -14.234375 C 33.375 -17.296875 33.421875 -27.492188 32.421875 -44.828125 C 32.046875 -49.265625 31.09375 -51.75 29.5625 -52.28125 C 29.59375 -52.34375 29.40625 -52.453125 29 -52.609375 L 28.484375 -52.796875 C 21.828125 -54.078125 18 -53.296875 17 -50.453125 Z M 17 -50.453125 "/></g></g><g transform="translate(282.619975, 98.984901)"><g><path d="M 41.734375 -67.03125 C 42.828125 -52.789062 43.15625 -37.566406 42.71875 -21.359375 C 42.6875 -15.921875 42.15625 -11.691406 41.125 -8.671875 L 40.890625 -8.0625 C 38.421875 -0.78125 30.722656 1.890625 17.796875 -0.046875 C 16.015625 -0.359375 14.578125 -0.703125 13.484375 -1.078125 C 7.304688 -3.171875 4.34375 -9.445312 4.59375 -19.90625 C 4.46875 -22.40625 4.34375 -29.914062 4.21875 -42.4375 C 3.625 -50.5625 3.234375 -57.742188 3.046875 -63.984375 L 16.53125 -63.984375 C 16.625 -63.609375 16.640625 -61.378906 16.578125 -57.296875 C 17.265625 -45.671875 17.71875 -33.410156 17.9375 -20.515625 C 18.1875 -16.234375 18.75 -13.515625 19.625 -12.359375 C 20.375 -11.804688 20.796875 -11.515625 20.890625 -11.484375 C 23.640625 -10.578125 26.703125 -10.515625 30.078125 -11.296875 C 31.578125 -11.972656 32.46875 -12.703125 32.75 -13.484375 L 33.03125 -14.375 C 34.3125 -18.1875 34.640625 -24.765625 34.015625 -34.109375 C 33.796875 -47.691406 33.546875 -57.539062 33.265625 -63.65625 L 32.84375 -66.703125 C 34.40625 -67.078125 37.367188 -67.1875 41.734375 -67.03125 Z M 41.734375 -67.03125 "/></g></g><g transform="translate(326.935832, 98.984901)"><g><path d="M 45.203125 -66.46875 L 45.109375 -57.296875 C 44.796875 -57.171875 42.515625 -57.109375 38.265625 -57.109375 L 28.578125 -56.640625 C 28.265625 -37.398438 28.4375 -18.519531 29.09375 0 C 26.90625 0.25 23.765625 0.34375 19.671875 0.28125 C 19.640625 0.34375 18.890625 0.390625 17.421875 0.421875 C 17.203125 -1.890625 17.15625 -5.390625 17.28125 -10.078125 C 17.53125 -18.535156 17.34375 -27.679688 16.71875 -37.515625 L 16.25 -52.796875 C 15.8125 -52.953125 10.957031 -53.078125 1.6875 -53.171875 L 1.59375 -53.21875 C 1.59375 -57.09375 1.484375 -60.976562 1.265625 -64.875 C 2.265625 -65.125 5.929688 -65.234375 12.265625 -65.203125 C 20.609375 -65.359375 31.585938 -65.78125 45.203125 -66.46875 Z M 45.203125 -66.46875 "/></g></g><g transform="translate(373.968729, 98.984901)"><g/></g><g transform="translate(397.766251, 98.984901)"><g><path d="M 2.71875 -9.1875 C 2.75 -14.582031 4.613281 -19.59375 8.3125 -24.21875 C 12.007812 -28.84375 17.171875 -33.242188 23.796875 -37.421875 C 25.953125 -38.828125 27.265625 -41.078125 27.734375 -44.171875 C 28.484375 -48.453125 28.390625 -51.890625 27.453125 -54.484375 L 27.3125 -54.859375 C 27.1875 -55.234375 26.734375 -55.6875 25.953125 -56.21875 C 23.140625 -57.09375 20.59375 -57.125 18.3125 -56.3125 L 18.03125 -56.21875 C 16.0625 -55.5 14.9375 -52.234375 14.65625 -46.421875 C 8.601562 -46.515625 4.40625 -46.640625 2.0625 -46.796875 C 1.75 -53.015625 2.609375 -57.632812 4.640625 -60.65625 C 5.390625 -62.59375 7.65625 -64.25 11.4375 -65.625 C 13.644531 -66.40625 15.859375 -66.8125 18.078125 -66.84375 C 28.484375 -66.96875 34.882812 -63.722656 37.28125 -57.109375 L 37.515625 -56.359375 C 38.015625 -55.046875 38.359375 -53.609375 38.546875 -52.046875 C 39.140625 -46.203125 39.234375 -42.34375 38.828125 -40.46875 C 37.734375 -34.914062 35.019531 -30.890625 30.6875 -28.390625 L 19.578125 -20.09375 C 16.078125 -17.0625 14.515625 -14.390625 14.890625 -12.078125 C 19.796875 -12.078125 27.570312 -12.203125 38.21875 -12.453125 L 38.40625 -12.40625 L 39.015625 -1.921875 C 18.910156 -0.859375 6.78125 -0.40625 2.625 -0.5625 Z M 2.71875 -9.1875 "/></g></g></g></svg>